<?xml version="1.0" encoding="UTF-8"?>
<svg id="Camada_1" xmlns="http://www.w3.org/2000/svg" viewBox="0 0 574.67 389.87">
  <defs>
    <style>
      .cls-1 {
        fill: #FF0A00;
        fill-rule: evenodd;
      }
    </style>
  </defs>
  <g id="Selfit_-_Sem_Sub">
    <g>
      <path class="cls-1" d="M45.15,213.08c-14.32,0-26.7-1.47-36.76-4.59-6.78-2.23-9.4-6.55-8.06-13.39l1.89-9.48c1.29-6.25,5.21-9.38,11.27-9.38,2.18,0,7.24,1.42,15.68,4.07,8.46,2.68,16.43,3.9,24.41,3.9h2.45c16.75,0,22.35-3.37,24.17-11.14.82-3.92-.34-6.55-3.52-7.97-3.1-1.76-10.34-3.65-21.68-6.37-18.13-3.37-29.69-7.97-34.68-13.57-4.99-5.55-6.28-15.01-3.85-27.84,4.99-24.48,22.45-34.86,58.52-34.86h3.67c13.79,0,26.15,1.68,36.76,4.77,6.77,2.25,9.33,6.57,7.99,13.32l-1.83,9.48c-1.36,6.33-5.28,9.43-11.56,9.43-2.24,0-7.04-1.21-14.74-3.85-7.71-2.7-15.41-4.1-23.46-4.1h-1.96c-13.79,0-18.91,2.63-20.27,9.65-1.09,6.1,1.83,8.26,17.22,11.89,21.56,4.14,35.28,8.75,41.25,14.34,5.95,5.33,7.77,14.26,5.33,26.89-5.26,26.9-23.9,38.8-64.67,38.8h-3.58Z"/>
      <path class="cls-1" d="M204.17,82.46h-2.36c-21.08,0-36.42,4.31-46.31,12.83-9.58,8.44-16.89,24.66-21.69,48.67l-1.07,6.06c-4.52,23.05-2.85,39.27,4.46,48.73,7.64,9.45,22.32,14.32,43.88,14.32h3.65c14.51,0,28.18-1.48,40.53-4.41,7.57-1.94,11.22-4.57,12.58-12.08l1.62-7.3c1.29-6.55-2.23-11.16-8.33-11.16-1.47,0-6.82,1.02-16.28,3.18-9.26,2.14-17.98,3.18-26.22,3.18h-3.9c-19.15,0-23.87-6.08-20.69-22.58.54-2.9,5.6-27.36,6.06-30.07,3.54-17.71,10.35-23.5,28.06-23.5h3.65c9.93,0,16.22,1.69,18.86,4.84,2.55,3.18,2.96,9.2,1.06,18.66-.52,2.71-2.21,4.12-4.86,4.12l-29.05.07c-4.88,0-7.77,2.23-8.53,6.97l-1.34,6.3c-.95,4.71,1.63,8.14,6.35,8.14l45.75.08c13.32,0,20.69-4.81,23.12-18.18l1.27-7.04c7.24-36.56-7.57-49.86-50.28-49.86"/>
      <path class="cls-1" d="M460.71,202.14c-1.36,6.53-5.26,9.72-11.83,9.72h-13.1c-6.5,0-9.8-4.59-8.53-11.14l20.81-107.12c1.29-6.57,5.23-9.93,11.78-9.93h13.39c6.01,0,9.6,4.79,8.24,11.36l-20.76,107.12Z"/>
      <path class="cls-1" d="M526.2,213.08c-30.74.22-44.88-12.16-35.8-58.67l17.15-86.23c1.27-6.5,5.28-9.93,11.76-9.93h13.39c6.01,0,9.58,4.66,8.24,11.16l-2.38,12.83c-.52,2.71.62,4.12,3.33,4.12h23.77c6.48,0,10.07,4.86,8.71,11.41l-1.81,8.73c-1.09,6.57-5.01,9.73-11.83,9.73h-24.74c-2.63,0-4.12,1.21-4.86,3.38l-7.57,38.18c-3.99,18.44-.47,25.48,10.47,25.48h.69c7.76,0,16.55-2.7,19.2-2.7,5.81,0,8.91,4.1,7.56,10.67l-1.54,7.77c-1.09,6.49-4.07,9.95-11.64,12.11-5.61,1.21-12.38,1.94-20.61,1.94h-1.49Z"/>
      <path class="cls-1" d="M54.8,382.45c-.94-.75-1.01-2.13-.25-3.07.38-.47,1-.72,1.61-.72.33,0,.6.07.89.2h.07l.33.2c.33.27,212.55,40.88,261.35-138.76,6.62-22.57,29.65-144.9,33.32-157.93.8-6.82,16.82-64.08,82.79-76.91.25-.05.59-.15,1.14-.27,14.94-3.45,32.03-5.19,50.96-5.19,5.06,0,10.27.12,15.55.4.59,0,1.14.27,1.54.74.4.47.62,1.07.54,1.62-.05,1.16-1.01,2.03-2.16,2.11l-4.19.12c-.82.07-1.67.07-2.7.13-2.23.07-5.06.14-8.18.47-.82.15-1.64.2-2.45.28-1.54.12-3.18.25-4.86.47l-7.97,1.14c-2.49.42-5.46.95-8.38,1.71-9.87,2.41-19.4,5.86-26.82,9.65-33.07,16.69-43.32,48.45-47.26,58.87-.34.87-.6,1.56-.81,2.1-.4.87-.4,1.76,0,2.36.47.6,1.21.94,2.23.94h28.46c3.9,0,7.09,1.29,8.98,3.6,1.83,2.08,2.5,4.99,1.96,8.23l-2.1,12.7c-1.15,6.92-5.41,10.34-12.76,10.42h-32.03c-2.31,0-4.61,1.89-5.01,4.12l-2.16,11.23c-2.7,14.52-17.37,96.16-24.01,116.52-53.38,186.93-297.5,132.65-297.63,132.53"/>
      <path class="cls-1" d="M301.91,187.26h-5.01l28.11-144.76c1-5.28-2.18-9.33-7.52-9.33h-14.51c-5.26,0-9.8,3.9-10.87,9.33l-25.88,133.27c-4.87,25.14-7.03,37.24,15.93,37.24h14.74c4.91,0,9.05-3.52,10.07-8.44l1.69-8.73c.94-4.99-1.89-8.58-6.75-8.58"/>
    </g>
  </g>
</svg>